# xmcd
#
# Track frame offsets: 
#        150
#        21665
#        44410
#        71059
#        89183
#        109018
#        129949
#        155114
#        184218
#        201604
#        228804
#        251446
#        274248
#        312083
#
# Disc length: 4795 seconds
#
# Revision: 1
# Processed by: cddbd v1.5.2PL0 Copyright (c) Steve Scherf et al.
# Submitted via: ExactAudioCopyFreeDBPlugin 1.0
#
DISCID=d312b90e
DTITLE=Various Artist - TETSUYA KOMURO THE GREATEST HITS a AVCD-17780
DYEAR=2006
DGENRE=JPop
TTITLE0=GOING GOING HOME - H Jungle with t
TTITLE1=survival dAnce 〜no no cry more〜 - TRF
TTITLE2=Feel Like dance - globe
TTITLE3=GET WILD - TM NETWORK
TTITLE4=BE TOGETHER - 鈴木あみ
TTITLE5=Don't wanna cry - 安室奈美恵
TTITLE6=I BELIEVE（Radio Edit） - 華原朋美
TTITLE7=FACES PLACES - globe
TTITLE8=BELIEVE - 渡辺美里
TTITLE9=a song is born - 浜崎あゆみ&KEIKO
TTITLE10=the meaning of peace - 倖田來未&BoA
TTITLE11=lovin'it - 安室奈美恵&VERBAL
TTITLE12=YOU ARE THE ONE - TK PRESENTS
TTITLE13=CCCD
EXTD=YEAR: 2006
EXTT0=
EXTT1=
EXTT2=
EXTT3=
EXTT4=
EXTT5=
EXTT6=
EXTT7=
EXTT8=
EXTT9=
EXTT10=
EXTT11=
EXTT12=
EXTT13=
PLAYORDER=
